<svg width="63" height="50" viewBox="0 0 63 50" fill="none" xmlns="http://www.w3.org/2000/svg">
<path opacity="0.1" d="M62.6164 36.7241C62.6164 44.1379 56.7543 50 49.3405 50C41.9267 50 35.8922 44.3103 35.5474 35C35.0302 23.4483 41.237 8.10345 54.6853 0L62.6164 5.68965C56.5819 10.1724 52.6164 15.6897 50.7198 21.7241C50.375 22.7586 50.7198 23.6207 51.7543 23.6207C57.9612 24.8276 62.6164 30.1724 62.6164 36.7241ZM27.6164 36.7241C27.6164 44.1379 21.7543 50 14.3405 50C6.9267 50 0.892218 44.3103 0.54739 35C0.0301484 23.4483 6.23705 8.10345 19.6853 0L27.6164 5.68965C21.5819 10.1724 17.6164 15.6897 15.7198 21.7241C15.375 22.7586 15.7198 23.6207 16.7543 23.6207C22.9612 24.8276 27.6164 30.1724 27.6164 36.7241Z" fill="#856EB0"/>
</svg>
