<svg width="63" height="50" viewBox="0 0 63 50" fill="none" xmlns="http://www.w3.org/2000/svg">
<path opacity="0.1" d="M0.418811 13.2759C0.418812 5.86206 6.28087 -1.10167e-06 13.6947 -4.53537e-07C21.1085 1.94597e-07 27.1429 5.68966 27.4878 15C28.005 26.5517 21.7981 41.8966 8.34984 50L0.418808 44.3103C6.45329 39.8276 10.4188 34.3103 12.3154 28.2759C12.6602 27.2414 12.3154 26.3793 11.2809 26.3793C5.07397 25.1724 0.418811 19.8276 0.418811 13.2759ZM35.4188 13.2759C35.4188 5.86207 41.2809 1.95813e-06 48.6947 2.60626e-06C56.1085 3.25439e-06 62.1429 5.68966 62.4878 15C63.005 26.5517 56.7981 41.8966 43.3498 50L35.4188 44.3103C41.4533 39.8276 45.4188 34.3103 47.3154 28.2759C47.6602 27.2414 47.3154 26.3793 46.2809 26.3793C40.074 25.1724 35.4188 19.8276 35.4188 13.2759Z" fill="#856EB0"/>
</svg>
